<mxfile host="app.diagrams.net" agent="Mozilla/5.0 (X11; Linux x86_64; rv:133.0) Gecko/20100101 Firefox/133.0" version="25.0.1">
  <diagram name="Страница — 1" id="3rqto_MG4qHBJneACggg">
    <mxGraphModel dx="2074" dy="321" grid="0" gridSize="10" guides="1" tooltips="1" connect="1" arrows="1" fold="1" page="0" pageScale="1" pageWidth="827" pageHeight="1169" math="0" shadow="0">
      <root>
        <mxCell id="0" />
        <mxCell id="1" parent="0" />
        <mxCell id="Hs36GyUGA4F-1gY2aN3R-1" value="Shedule" style="swimlane;fontStyle=0;childLayout=stackLayout;horizontal=1;startSize=30;horizontalStack=0;resizeParent=1;resizeParentMax=0;resizeLast=0;collapsible=1;marginBottom=0;whiteSpace=wrap;html=1;" vertex="1" parent="1">
          <mxGeometry x="-154" y="421" width="140" height="120" as="geometry" />
        </mxCell>
        <mxCell id="Hs36GyUGA4F-1gY2aN3R-2" value="Operator" style="text;strokeColor=none;fillColor=none;align=left;verticalAlign=middle;spacingLeft=4;spacingRight=4;overflow=hidden;points=[[0,0.5],[1,0.5]];portConstraint=eastwest;rotatable=0;whiteSpace=wrap;html=1;" vertex="1" parent="Hs36GyUGA4F-1gY2aN3R-1">
          <mxGeometry y="30" width="140" height="30" as="geometry" />
        </mxCell>
        <mxCell id="Hs36GyUGA4F-1gY2aN3R-3" value="ShiftDate" style="text;strokeColor=none;fillColor=none;align=left;verticalAlign=middle;spacingLeft=4;spacingRight=4;overflow=hidden;points=[[0,0.5],[1,0.5]];portConstraint=eastwest;rotatable=0;whiteSpace=wrap;html=1;" vertex="1" parent="Hs36GyUGA4F-1gY2aN3R-1">
          <mxGeometry y="60" width="140" height="30" as="geometry" />
        </mxCell>
        <mxCell id="Hs36GyUGA4F-1gY2aN3R-4" value="ShiftType" style="text;strokeColor=none;fillColor=none;align=left;verticalAlign=middle;spacingLeft=4;spacingRight=4;overflow=hidden;points=[[0,0.5],[1,0.5]];portConstraint=eastwest;rotatable=0;whiteSpace=wrap;html=1;" vertex="1" parent="Hs36GyUGA4F-1gY2aN3R-1">
          <mxGeometry y="90" width="140" height="30" as="geometry" />
        </mxCell>
        <mxCell id="Hs36GyUGA4F-1gY2aN3R-5" value="Incident" style="swimlane;fontStyle=0;childLayout=stackLayout;horizontal=1;startSize=30;horizontalStack=0;resizeParent=1;resizeParentMax=0;resizeLast=0;collapsible=1;marginBottom=0;whiteSpace=wrap;html=1;" vertex="1" parent="1">
          <mxGeometry x="-154" y="781" width="140" height="150" as="geometry" />
        </mxCell>
        <mxCell id="Hs36GyUGA4F-1gY2aN3R-6" value="Operator" style="text;strokeColor=none;fillColor=none;align=left;verticalAlign=middle;spacingLeft=4;spacingRight=4;overflow=hidden;points=[[0,0.5],[1,0.5]];portConstraint=eastwest;rotatable=0;whiteSpace=wrap;html=1;" vertex="1" parent="Hs36GyUGA4F-1gY2aN3R-5">
          <mxGeometry y="30" width="140" height="30" as="geometry" />
        </mxCell>
        <mxCell id="Hs36GyUGA4F-1gY2aN3R-7" value="Date" style="text;strokeColor=none;fillColor=none;align=left;verticalAlign=middle;spacingLeft=4;spacingRight=4;overflow=hidden;points=[[0,0.5],[1,0.5]];portConstraint=eastwest;rotatable=0;whiteSpace=wrap;html=1;" vertex="1" parent="Hs36GyUGA4F-1gY2aN3R-5">
          <mxGeometry y="60" width="140" height="30" as="geometry" />
        </mxCell>
        <mxCell id="Hs36GyUGA4F-1gY2aN3R-8" value="Description" style="text;strokeColor=none;fillColor=none;align=left;verticalAlign=middle;spacingLeft=4;spacingRight=4;overflow=hidden;points=[[0,0.5],[1,0.5]];portConstraint=eastwest;rotatable=0;whiteSpace=wrap;html=1;" vertex="1" parent="Hs36GyUGA4F-1gY2aN3R-5">
          <mxGeometry y="90" width="140" height="30" as="geometry" />
        </mxCell>
        <mxCell id="Hs36GyUGA4F-1gY2aN3R-9" value="IsResolved" style="text;strokeColor=none;fillColor=none;align=left;verticalAlign=middle;spacingLeft=4;spacingRight=4;overflow=hidden;points=[[0,0.5],[1,0.5]];portConstraint=eastwest;rotatable=0;whiteSpace=wrap;html=1;" vertex="1" parent="Hs36GyUGA4F-1gY2aN3R-5">
          <mxGeometry y="120" width="140" height="30" as="geometry" />
        </mxCell>
        <mxCell id="Hs36GyUGA4F-1gY2aN3R-10" value="Department" style="swimlane;fontStyle=0;childLayout=stackLayout;horizontal=1;startSize=30;horizontalStack=0;resizeParent=1;resizeParentMax=0;resizeLast=0;collapsible=1;marginBottom=0;whiteSpace=wrap;html=1;" vertex="1" parent="1">
          <mxGeometry x="46" y="421" width="140" height="120" as="geometry" />
        </mxCell>
        <mxCell id="Hs36GyUGA4F-1gY2aN3R-11" value="Name" style="text;strokeColor=none;fillColor=none;align=left;verticalAlign=middle;spacingLeft=4;spacingRight=4;overflow=hidden;points=[[0,0.5],[1,0.5]];portConstraint=eastwest;rotatable=0;whiteSpace=wrap;html=1;" vertex="1" parent="Hs36GyUGA4F-1gY2aN3R-10">
          <mxGeometry y="30" width="140" height="30" as="geometry" />
        </mxCell>
        <mxCell id="Hs36GyUGA4F-1gY2aN3R-12" value="Address" style="text;strokeColor=none;fillColor=none;align=left;verticalAlign=middle;spacingLeft=4;spacingRight=4;overflow=hidden;points=[[0,0.5],[1,0.5]];portConstraint=eastwest;rotatable=0;whiteSpace=wrap;html=1;" vertex="1" parent="Hs36GyUGA4F-1gY2aN3R-10">
          <mxGeometry y="60" width="140" height="30" as="geometry" />
        </mxCell>
        <mxCell id="Hs36GyUGA4F-1gY2aN3R-13" value="Description" style="text;strokeColor=none;fillColor=none;align=left;verticalAlign=middle;spacingLeft=4;spacingRight=4;overflow=hidden;points=[[0,0.5],[1,0.5]];portConstraint=eastwest;rotatable=0;whiteSpace=wrap;html=1;" vertex="1" parent="Hs36GyUGA4F-1gY2aN3R-10">
          <mxGeometry y="90" width="140" height="30" as="geometry" />
        </mxCell>
        <mxCell id="Hs36GyUGA4F-1gY2aN3R-14" value="Operator" style="swimlane;fontStyle=0;childLayout=stackLayout;horizontal=1;startSize=30;horizontalStack=0;resizeParent=1;resizeParentMax=0;resizeLast=0;collapsible=1;marginBottom=0;whiteSpace=wrap;html=1;" vertex="1" parent="1">
          <mxGeometry x="46" y="581" width="140" height="90" as="geometry" />
        </mxCell>
        <mxCell id="Hs36GyUGA4F-1gY2aN3R-15" value="FIO" style="text;strokeColor=none;fillColor=none;align=left;verticalAlign=middle;spacingLeft=4;spacingRight=4;overflow=hidden;points=[[0,0.5],[1,0.5]];portConstraint=eastwest;rotatable=0;whiteSpace=wrap;html=1;" vertex="1" parent="Hs36GyUGA4F-1gY2aN3R-14">
          <mxGeometry y="30" width="140" height="30" as="geometry" />
        </mxCell>
        <mxCell id="Hs36GyUGA4F-1gY2aN3R-16" value="Department" style="text;strokeColor=none;fillColor=none;align=left;verticalAlign=middle;spacingLeft=4;spacingRight=4;overflow=hidden;points=[[0,0.5],[1,0.5]];portConstraint=eastwest;rotatable=0;whiteSpace=wrap;html=1;" vertex="1" parent="Hs36GyUGA4F-1gY2aN3R-14">
          <mxGeometry y="60" width="140" height="30" as="geometry" />
        </mxCell>
        <mxCell id="Hs36GyUGA4F-1gY2aN3R-17" value="Call" style="swimlane;fontStyle=0;childLayout=stackLayout;horizontal=1;startSize=30;horizontalStack=0;resizeParent=1;resizeParentMax=0;resizeLast=0;collapsible=1;marginBottom=0;whiteSpace=wrap;html=1;" vertex="1" parent="1">
          <mxGeometry x="246" y="581" width="140" height="150" as="geometry" />
        </mxCell>
        <mxCell id="Hs36GyUGA4F-1gY2aN3R-18" value="Client" style="text;strokeColor=none;fillColor=none;align=left;verticalAlign=middle;spacingLeft=4;spacingRight=4;overflow=hidden;points=[[0,0.5],[1,0.5]];portConstraint=eastwest;rotatable=0;whiteSpace=wrap;html=1;" vertex="1" parent="Hs36GyUGA4F-1gY2aN3R-17">
          <mxGeometry y="30" width="140" height="30" as="geometry" />
        </mxCell>
        <mxCell id="Hs36GyUGA4F-1gY2aN3R-19" value="Operator" style="text;strokeColor=none;fillColor=none;align=left;verticalAlign=middle;spacingLeft=4;spacingRight=4;overflow=hidden;points=[[0,0.5],[1,0.5]];portConstraint=eastwest;rotatable=0;whiteSpace=wrap;html=1;" vertex="1" parent="Hs36GyUGA4F-1gY2aN3R-17">
          <mxGeometry y="60" width="140" height="30" as="geometry" />
        </mxCell>
        <mxCell id="Hs36GyUGA4F-1gY2aN3R-20" value="StartDate" style="text;strokeColor=none;fillColor=none;align=left;verticalAlign=middle;spacingLeft=4;spacingRight=4;overflow=hidden;points=[[0,0.5],[1,0.5]];portConstraint=eastwest;rotatable=0;whiteSpace=wrap;html=1;" vertex="1" parent="Hs36GyUGA4F-1gY2aN3R-17">
          <mxGeometry y="90" width="140" height="30" as="geometry" />
        </mxCell>
        <mxCell id="Hs36GyUGA4F-1gY2aN3R-21" value="Duration" style="text;strokeColor=none;fillColor=none;align=left;verticalAlign=middle;spacingLeft=4;spacingRight=4;overflow=hidden;points=[[0,0.5],[1,0.5]];portConstraint=eastwest;rotatable=0;whiteSpace=wrap;html=1;" vertex="1" parent="Hs36GyUGA4F-1gY2aN3R-17">
          <mxGeometry y="120" width="140" height="30" as="geometry" />
        </mxCell>
        <mxCell id="Hs36GyUGA4F-1gY2aN3R-22" value="CallType" style="swimlane;fontStyle=0;childLayout=stackLayout;horizontal=1;startSize=30;horizontalStack=0;resizeParent=1;resizeParentMax=0;resizeLast=0;collapsible=1;marginBottom=0;whiteSpace=wrap;html=1;" vertex="1" parent="1">
          <mxGeometry x="246" y="421" width="140" height="120" as="geometry" />
        </mxCell>
        <mxCell id="Hs36GyUGA4F-1gY2aN3R-23" value="Call" style="text;strokeColor=none;fillColor=none;align=left;verticalAlign=middle;spacingLeft=4;spacingRight=4;overflow=hidden;points=[[0,0.5],[1,0.5]];portConstraint=eastwest;rotatable=0;whiteSpace=wrap;html=1;" vertex="1" parent="Hs36GyUGA4F-1gY2aN3R-22">
          <mxGeometry y="30" width="140" height="30" as="geometry" />
        </mxCell>
        <mxCell id="Hs36GyUGA4F-1gY2aN3R-24" value="Type" style="text;strokeColor=none;fillColor=none;align=left;verticalAlign=middle;spacingLeft=4;spacingRight=4;overflow=hidden;points=[[0,0.5],[1,0.5]];portConstraint=eastwest;rotatable=0;whiteSpace=wrap;html=1;" vertex="1" parent="Hs36GyUGA4F-1gY2aN3R-22">
          <mxGeometry y="60" width="140" height="30" as="geometry" />
        </mxCell>
        <mxCell id="Hs36GyUGA4F-1gY2aN3R-25" value="Description" style="text;strokeColor=none;fillColor=none;align=left;verticalAlign=middle;spacingLeft=4;spacingRight=4;overflow=hidden;points=[[0,0.5],[1,0.5]];portConstraint=eastwest;rotatable=0;whiteSpace=wrap;html=1;" vertex="1" parent="Hs36GyUGA4F-1gY2aN3R-22">
          <mxGeometry y="90" width="140" height="30" as="geometry" />
        </mxCell>
        <mxCell id="Hs36GyUGA4F-1gY2aN3R-26" value="Client" style="swimlane;fontStyle=0;childLayout=stackLayout;horizontal=1;startSize=30;horizontalStack=0;resizeParent=1;resizeParentMax=0;resizeLast=0;collapsible=1;marginBottom=0;whiteSpace=wrap;html=1;" vertex="1" parent="1">
          <mxGeometry x="46" y="781" width="140" height="120" as="geometry" />
        </mxCell>
        <mxCell id="Hs36GyUGA4F-1gY2aN3R-27" value="FIO" style="text;strokeColor=none;fillColor=none;align=left;verticalAlign=middle;spacingLeft=4;spacingRight=4;overflow=hidden;points=[[0,0.5],[1,0.5]];portConstraint=eastwest;rotatable=0;whiteSpace=wrap;html=1;" vertex="1" parent="Hs36GyUGA4F-1gY2aN3R-26">
          <mxGeometry y="30" width="140" height="30" as="geometry" />
        </mxCell>
        <mxCell id="Hs36GyUGA4F-1gY2aN3R-28" value="Phone" style="text;strokeColor=none;fillColor=none;align=left;verticalAlign=middle;spacingLeft=4;spacingRight=4;overflow=hidden;points=[[0,0.5],[1,0.5]];portConstraint=eastwest;rotatable=0;whiteSpace=wrap;html=1;" vertex="1" parent="Hs36GyUGA4F-1gY2aN3R-26">
          <mxGeometry y="60" width="140" height="30" as="geometry" />
        </mxCell>
        <mxCell id="Hs36GyUGA4F-1gY2aN3R-29" value="Email" style="text;strokeColor=none;fillColor=none;align=left;verticalAlign=middle;spacingLeft=4;spacingRight=4;overflow=hidden;points=[[0,0.5],[1,0.5]];portConstraint=eastwest;rotatable=0;whiteSpace=wrap;html=1;" vertex="1" parent="Hs36GyUGA4F-1gY2aN3R-26">
          <mxGeometry y="90" width="140" height="30" as="geometry" />
        </mxCell>
        <mxCell id="Hs36GyUGA4F-1gY2aN3R-30" value="Feedback" style="swimlane;fontStyle=0;childLayout=stackLayout;horizontal=1;startSize=30;horizontalStack=0;resizeParent=1;resizeParentMax=0;resizeLast=0;collapsible=1;marginBottom=0;whiteSpace=wrap;html=1;" vertex="1" parent="1">
          <mxGeometry x="246" y="781" width="140" height="150" as="geometry" />
        </mxCell>
        <mxCell id="Hs36GyUGA4F-1gY2aN3R-31" value="Client" style="text;strokeColor=none;fillColor=none;align=left;verticalAlign=middle;spacingLeft=4;spacingRight=4;overflow=hidden;points=[[0,0.5],[1,0.5]];portConstraint=eastwest;rotatable=0;whiteSpace=wrap;html=1;" vertex="1" parent="Hs36GyUGA4F-1gY2aN3R-30">
          <mxGeometry y="30" width="140" height="30" as="geometry" />
        </mxCell>
        <mxCell id="Hs36GyUGA4F-1gY2aN3R-32" value="Call" style="text;strokeColor=none;fillColor=none;align=left;verticalAlign=middle;spacingLeft=4;spacingRight=4;overflow=hidden;points=[[0,0.5],[1,0.5]];portConstraint=eastwest;rotatable=0;whiteSpace=wrap;html=1;" vertex="1" parent="Hs36GyUGA4F-1gY2aN3R-30">
          <mxGeometry y="60" width="140" height="30" as="geometry" />
        </mxCell>
        <mxCell id="Hs36GyUGA4F-1gY2aN3R-33" value="Rating" style="text;strokeColor=none;fillColor=none;align=left;verticalAlign=middle;spacingLeft=4;spacingRight=4;overflow=hidden;points=[[0,0.5],[1,0.5]];portConstraint=eastwest;rotatable=0;whiteSpace=wrap;html=1;" vertex="1" parent="Hs36GyUGA4F-1gY2aN3R-30">
          <mxGeometry y="90" width="140" height="30" as="geometry" />
        </mxCell>
        <mxCell id="Hs36GyUGA4F-1gY2aN3R-34" value="Comment" style="text;strokeColor=none;fillColor=none;align=left;verticalAlign=middle;spacingLeft=4;spacingRight=4;overflow=hidden;points=[[0,0.5],[1,0.5]];portConstraint=eastwest;rotatable=0;whiteSpace=wrap;html=1;" vertex="1" parent="Hs36GyUGA4F-1gY2aN3R-30">
          <mxGeometry y="120" width="140" height="30" as="geometry" />
        </mxCell>
        <mxCell id="Hs36GyUGA4F-1gY2aN3R-35" value="RequestResult" style="swimlane;fontStyle=0;childLayout=stackLayout;horizontal=1;startSize=30;horizontalStack=0;resizeParent=1;resizeParentMax=0;resizeLast=0;collapsible=1;marginBottom=0;whiteSpace=wrap;html=1;" vertex="1" parent="1">
          <mxGeometry x="446" y="781" width="140" height="150" as="geometry" />
        </mxCell>
        <mxCell id="Hs36GyUGA4F-1gY2aN3R-36" value="Request" style="text;strokeColor=none;fillColor=none;align=left;verticalAlign=middle;spacingLeft=4;spacingRight=4;overflow=hidden;points=[[0,0.5],[1,0.5]];portConstraint=eastwest;rotatable=0;whiteSpace=wrap;html=1;" vertex="1" parent="Hs36GyUGA4F-1gY2aN3R-35">
          <mxGeometry y="30" width="140" height="30" as="geometry" />
        </mxCell>
        <mxCell id="Hs36GyUGA4F-1gY2aN3R-37" value="ReolutionDate" style="text;strokeColor=none;fillColor=none;align=left;verticalAlign=middle;spacingLeft=4;spacingRight=4;overflow=hidden;points=[[0,0.5],[1,0.5]];portConstraint=eastwest;rotatable=0;whiteSpace=wrap;html=1;" vertex="1" parent="Hs36GyUGA4F-1gY2aN3R-35">
          <mxGeometry y="60" width="140" height="30" as="geometry" />
        </mxCell>
        <mxCell id="Hs36GyUGA4F-1gY2aN3R-38" value="ResolutionDate" style="text;strokeColor=none;fillColor=none;align=left;verticalAlign=middle;spacingLeft=4;spacingRight=4;overflow=hidden;points=[[0,0.5],[1,0.5]];portConstraint=eastwest;rotatable=0;whiteSpace=wrap;html=1;" vertex="1" parent="Hs36GyUGA4F-1gY2aN3R-35">
          <mxGeometry y="90" width="140" height="30" as="geometry" />
        </mxCell>
        <mxCell id="Hs36GyUGA4F-1gY2aN3R-39" value="Notes" style="text;strokeColor=none;fillColor=none;align=left;verticalAlign=middle;spacingLeft=4;spacingRight=4;overflow=hidden;points=[[0,0.5],[1,0.5]];portConstraint=eastwest;rotatable=0;whiteSpace=wrap;html=1;" vertex="1" parent="Hs36GyUGA4F-1gY2aN3R-35">
          <mxGeometry y="120" width="140" height="30" as="geometry" />
        </mxCell>
        <mxCell id="Hs36GyUGA4F-1gY2aN3R-40" value="Request" style="swimlane;fontStyle=0;childLayout=stackLayout;horizontal=1;startSize=30;horizontalStack=0;resizeParent=1;resizeParentMax=0;resizeLast=0;collapsible=1;marginBottom=0;whiteSpace=wrap;html=1;" vertex="1" parent="1">
          <mxGeometry x="446" y="581" width="140" height="150" as="geometry" />
        </mxCell>
        <mxCell id="Hs36GyUGA4F-1gY2aN3R-41" value="Request" style="text;strokeColor=none;fillColor=none;align=left;verticalAlign=middle;spacingLeft=4;spacingRight=4;overflow=hidden;points=[[0,0.5],[1,0.5]];portConstraint=eastwest;rotatable=0;whiteSpace=wrap;html=1;" vertex="1" parent="Hs36GyUGA4F-1gY2aN3R-40">
          <mxGeometry y="30" width="140" height="30" as="geometry" />
        </mxCell>
        <mxCell id="Hs36GyUGA4F-1gY2aN3R-42" value="ReolutionDate" style="text;strokeColor=none;fillColor=none;align=left;verticalAlign=middle;spacingLeft=4;spacingRight=4;overflow=hidden;points=[[0,0.5],[1,0.5]];portConstraint=eastwest;rotatable=0;whiteSpace=wrap;html=1;" vertex="1" parent="Hs36GyUGA4F-1gY2aN3R-40">
          <mxGeometry y="60" width="140" height="30" as="geometry" />
        </mxCell>
        <mxCell id="Hs36GyUGA4F-1gY2aN3R-43" value="ResolutionDate" style="text;strokeColor=none;fillColor=none;align=left;verticalAlign=middle;spacingLeft=4;spacingRight=4;overflow=hidden;points=[[0,0.5],[1,0.5]];portConstraint=eastwest;rotatable=0;whiteSpace=wrap;html=1;" vertex="1" parent="Hs36GyUGA4F-1gY2aN3R-40">
          <mxGeometry y="90" width="140" height="30" as="geometry" />
        </mxCell>
        <mxCell id="Hs36GyUGA4F-1gY2aN3R-44" value="Notes" style="text;strokeColor=none;fillColor=none;align=left;verticalAlign=middle;spacingLeft=4;spacingRight=4;overflow=hidden;points=[[0,0.5],[1,0.5]];portConstraint=eastwest;rotatable=0;whiteSpace=wrap;html=1;" vertex="1" parent="Hs36GyUGA4F-1gY2aN3R-40">
          <mxGeometry y="120" width="140" height="30" as="geometry" />
        </mxCell>
        <mxCell id="Hs36GyUGA4F-1gY2aN3R-45" value="" style="edgeStyle=entityRelationEdgeStyle;fontSize=12;html=1;endArrow=ERoneToMany;startArrow=ERmandOne;rounded=0;" edge="1" parent="1" source="Hs36GyUGA4F-1gY2aN3R-10" target="Hs36GyUGA4F-1gY2aN3R-14">
          <mxGeometry width="100" height="100" relative="1" as="geometry">
            <mxPoint x="26" y="601" as="sourcePoint" />
            <mxPoint x="126" y="501" as="targetPoint" />
          </mxGeometry>
        </mxCell>
        <mxCell id="Hs36GyUGA4F-1gY2aN3R-46" value="" style="edgeStyle=entityRelationEdgeStyle;fontSize=12;html=1;endArrow=ERzeroToMany;startArrow=ERmandOne;rounded=0;exitX=1;exitY=0.5;exitDx=0;exitDy=0;" edge="1" parent="1" source="Hs36GyUGA4F-1gY2aN3R-16" target="Hs36GyUGA4F-1gY2aN3R-17">
          <mxGeometry width="100" height="100" relative="1" as="geometry">
            <mxPoint x="116" y="741" as="sourcePoint" />
            <mxPoint x="216" y="641" as="targetPoint" />
          </mxGeometry>
        </mxCell>
        <mxCell id="Hs36GyUGA4F-1gY2aN3R-47" value="" style="edgeStyle=entityRelationEdgeStyle;fontSize=12;html=1;endArrow=ERzeroToMany;startArrow=ERmandOne;rounded=0;" edge="1" parent="1" source="Hs36GyUGA4F-1gY2aN3R-26" target="Hs36GyUGA4F-1gY2aN3R-20">
          <mxGeometry width="100" height="100" relative="1" as="geometry">
            <mxPoint x="196" y="666" as="sourcePoint" />
            <mxPoint x="256" y="666" as="targetPoint" />
          </mxGeometry>
        </mxCell>
        <mxCell id="Hs36GyUGA4F-1gY2aN3R-49" value="" style="edgeStyle=entityRelationEdgeStyle;fontSize=12;html=1;endArrow=ERzeroToMany;startArrow=ERmandOne;rounded=0;" edge="1" parent="1" source="Hs36GyUGA4F-1gY2aN3R-14" target="Hs36GyUGA4F-1gY2aN3R-4">
          <mxGeometry width="100" height="100" relative="1" as="geometry">
            <mxPoint x="-74" y="531" as="sourcePoint" />
            <mxPoint x="-14" y="531" as="targetPoint" />
            <Array as="points">
              <mxPoint x="36" y="601" />
            </Array>
          </mxGeometry>
        </mxCell>
        <mxCell id="Hs36GyUGA4F-1gY2aN3R-50" value="" style="edgeStyle=entityRelationEdgeStyle;fontSize=12;html=1;endArrow=ERzeroToMany;startArrow=ERmandOne;rounded=0;" edge="1" parent="1" source="Hs36GyUGA4F-1gY2aN3R-16" target="Hs36GyUGA4F-1gY2aN3R-5">
          <mxGeometry width="100" height="100" relative="1" as="geometry">
            <mxPoint x="56" y="636" as="sourcePoint" />
            <mxPoint x="-4" y="496" as="targetPoint" />
            <Array as="points">
              <mxPoint x="46" y="611" />
            </Array>
          </mxGeometry>
        </mxCell>
        <mxCell id="Hs36GyUGA4F-1gY2aN3R-51" value="" style="edgeStyle=entityRelationEdgeStyle;fontSize=12;html=1;endArrow=ERzeroToOne;startArrow=ERmandOne;rounded=0;" edge="1" parent="1" source="Hs36GyUGA4F-1gY2aN3R-20" target="Hs36GyUGA4F-1gY2aN3R-30">
          <mxGeometry width="100" height="100" relative="1" as="geometry">
            <mxPoint x="441" y="761" as="sourcePoint" />
            <mxPoint x="496" y="701" as="targetPoint" />
          </mxGeometry>
        </mxCell>
        <mxCell id="Hs36GyUGA4F-1gY2aN3R-53" value="" style="edgeStyle=entityRelationEdgeStyle;fontSize=12;html=1;endArrow=ERzeroToOne;startArrow=ERmandOne;rounded=0;" edge="1" parent="1" source="Hs36GyUGA4F-1gY2aN3R-40" target="Hs36GyUGA4F-1gY2aN3R-38">
          <mxGeometry width="100" height="100" relative="1" as="geometry">
            <mxPoint x="669" y="707" as="sourcePoint" />
            <mxPoint x="656" y="651" as="targetPoint" />
          </mxGeometry>
        </mxCell>
        <mxCell id="Hs36GyUGA4F-1gY2aN3R-54" value="" style="edgeStyle=entityRelationEdgeStyle;fontSize=12;html=1;endArrow=ERzeroToOne;startArrow=ERmandOne;rounded=0;" edge="1" parent="1" source="Hs36GyUGA4F-1gY2aN3R-18" target="Hs36GyUGA4F-1gY2aN3R-22">
          <mxGeometry width="100" height="100" relative="1" as="geometry">
            <mxPoint x="516" y="362" as="sourcePoint" />
            <mxPoint x="516" y="532" as="targetPoint" />
          </mxGeometry>
        </mxCell>
        <mxCell id="Hs36GyUGA4F-1gY2aN3R-56" value="" style="edgeStyle=entityRelationEdgeStyle;fontSize=12;html=1;endArrow=ERzeroToMany;startArrow=ERmandOne;rounded=0;" edge="1" parent="1" source="Hs36GyUGA4F-1gY2aN3R-19" target="Hs36GyUGA4F-1gY2aN3R-42">
          <mxGeometry width="100" height="100" relative="1" as="geometry">
            <mxPoint x="56" y="666" as="sourcePoint" />
            <mxPoint x="-4" y="866" as="targetPoint" />
            <Array as="points">
              <mxPoint x="56" y="621" />
            </Array>
          </mxGeometry>
        </mxCell>
      </root>
    </mxGraphModel>
  </diagram>
</mxfile>
